<?xml version="1.0" encoding="utf-8"?>
<!-- Generator: Adobe Illustrator 27.3.1, SVG Export Plug-In . SVG Version: 6.00 Build 0)  -->
<svg version="1.1" id="Layer_1" xmlns="http://www.w3.org/2000/svg" xmlns:xlink="http://www.w3.org/1999/xlink" x="0px" y="0px"
	 viewBox="0 0 1920 1080" style="enable-background:new 0 0 1920 1080;" xml:space="preserve">
<style type="text/css">
	.st0{opacity:0.38;fill:#FFAF55;enable-background:new    ;}
</style>
<path class="st0" d="M284,922.1c1,0,1.2-6,2.8-8.2c1.3-2,6.4-3.3,6.4-4.5c0-1.1-4.8-1.4-6.4-3.4c-1.4-1.7-2.3-7.5-3.3-7.5
	s-1.5,5.6-2.9,7.5s-6.4,3-6.4,4c0,1.1,5,2.1,6.4,3.9C282.4,916.2,282.8,922.1,284,922.1z"/>
<path class="st0" d="M65.6,902.4c0.5,0,0.6-3,1.4-4.1c0.7-1,3.2-1.6,3.2-2.3c0-0.6-2.4-0.7-3.2-1.7c-0.7-0.8-1.2-3.7-1.6-3.7
	c-0.5,0-0.8,2.8-1.4,3.8c-0.7,0.9-3.2,1.5-3.2,2s2.5,1.1,3.2,1.9C64.8,899.5,65,902.4,65.6,902.4z"/>
<path class="st0" d="M258.8,309.7c-1,0-1.2,6-2.8,8.2c-1.3,2-6.4,3.3-6.4,4.5c0,1.1,4.8,1.4,6.4,3.4c1.4,1.7,2.3,7.5,3.3,7.5
	s1.5-5.6,2.9-7.5s6.4-3,6.4-4c0-1.1-5-2.1-6.4-3.9C260.4,315.6,259.9,309.7,258.8,309.7z"/>
<path class="st0" d="M205.2,166.7c-0.9,0-1.1,5.4-2.5,7.4c-1.2,1.8-5.7,3-5.7,4s4.3,1.3,5.8,3.1c1.3,1.5,2.1,6.7,2.9,6.7
	c0.9,0,1.4-5.1,2.6-6.8c1.3-1.7,5.7-2.7,5.7-3.6c0-0.9-4.5-1.9-5.7-3.5C206.6,172,206.2,166.7,205.2,166.7z"/>
<path class="st0" d="M737.3,482.3c-1.3,0-1.6,7.9-3.7,10.8c-1.8,2.6-8.4,4.4-8.4,5.9s6.3,1.9,8.4,4.5c1.8,2.2,3.1,9.9,4.3,9.9
	c1.3,0,2-7.4,3.8-9.9s8.4-3.9,8.4-5.3s-6.5-2.8-8.4-5.1C739.4,490.1,738.7,482.3,737.3,482.3z"/>
<path class="st0" d="M1373.5,1007.9c0.5,0,0.6-3,1.4-4.1c0.7-1,3.2-1.6,3.2-2.3c0-0.6-2.4-0.7-3.2-1.7c-0.7-0.8-1.2-3.7-1.6-3.7
	c-0.5,0-0.8,2.8-1.4,3.8c-0.7,0.9-3.2,1.5-3.2,2s2.5,1.1,3.2,1.9C1372.7,1004.9,1373,1007.9,1373.5,1007.9z"/>
<path class="st0" d="M1271.5,654.1c0.5,0,0.6-3,1.4-4.1c0.7-1,3.2-1.6,3.2-2.3c0-0.6-2.4-0.7-3.2-1.7c-0.7-0.8-1.2-3.7-1.6-3.7
	s-0.8,2.8-1.4,3.8c-0.7,0.9-3.2,1.5-3.2,2s2.5,1.1,3.2,1.9C1270.7,651.2,1270.9,654.1,1271.5,654.1z"/>
<path class="st0" d="M1510.3,536.3c-0.9,0-1.1,5.4-2.5,7.4c-1.2,1.8-5.7,3-5.7,4s4.3,1.3,5.8,3.1c1.3,1.5,2.1,6.7,2.9,6.7
	c0.9,0,1.3-5.1,2.6-6.8c1.3-1.7,5.7-2.7,5.7-3.6c0-0.9-4.5-1.9-5.7-3.5C1511.7,541.6,1511.3,536.3,1510.3,536.3z"/>
<path class="st0" d="M1663,232.3c-0.9,0-1.1,5.4-2.5,7.4c-1.2,1.8-5.7,3-5.7,4s4.3,1.3,5.8,3.1c1.3,1.5,2.1,6.7,2.9,6.7
	c0.9,0,1.3-5.1,2.6-6.8c1.3-1.7,5.7-2.7,5.7-3.6c0-0.9-4.5-1.9-5.7-3.5C1664.4,237.7,1664,232.3,1663,232.3z"/>
<path class="st0" d="M1824.2,175.6c-0.5,0-0.6,3-1.4,4.1c-0.7,1-3.2,1.6-3.2,2.3c0,0.6,2.4,0.7,3.2,1.7c0.7,0.8,1.2,3.7,1.6,3.7
	c0.5,0,0.8-2.8,1.4-3.8c0.7-0.9,3.2-1.5,3.2-2s-2.5-1.1-3.2-1.9C1825,178.6,1824.8,175.6,1824.2,175.6z"/>
<path class="st0" d="M1693,264.4c-0.5,0-0.6,3-1.4,4.1c-0.7,1-3.2,1.6-3.2,2.3c0,0.6,2.4,0.7,3.2,1.7c0.7,0.8,1.2,3.7,1.6,3.7
	s0.8-2.8,1.4-3.8c0.7-0.9,3.2-1.5,3.2-2s-2.5-1.1-3.2-1.9C1693.8,267.4,1693.5,264.4,1693,264.4z"/>
</svg>
