<?xml version="1.0" encoding="utf-8"?>
<!-- Generator: Adobe Illustrator 27.3.1, SVG Export Plug-In . SVG Version: 6.00 Build 0)  -->
<svg version="1.1" id="Layer_1" xmlns="http://www.w3.org/2000/svg" xmlns:xlink="http://www.w3.org/1999/xlink" x="0px" y="0px"
	 viewBox="0 0 1920 1080" style="enable-background:new 0 0 1920 1080;" xml:space="preserve">
<style type="text/css">
	.st0{opacity:0.2;fill:#FFAF55;enable-background:new    ;}
</style>
<path class="st0" d="M349.6,734.9c1.3,0,1.6-7.9,3.7-10.8c1.8-2.6,8.4-4.4,8.4-5.9s-6.3-1.9-8.4-4.5c-1.8-2.2-3.1-9.9-4.3-9.9
	c-1.3,0-2,7.4-3.8,9.9s-8.4,3.9-8.4,5.3c0,1.4,6.5,2.8,8.4,5.1C347.5,727,348.1,734.9,349.6,734.9z"/>
<path class="st0" d="M77.1,1055.4c1.2,0,1.4-6.8,3.2-9.4c1.5-2.2,7.3-3.8,7.3-5.2c0-1.3-5.4-1.6-7.3-3.9c-1.6-1.9-2.6-8.6-3.8-8.6
	c-1.1,0-1.7,6.4-3.3,8.6c-1.6,2.2-7.3,3.4-7.3,4.6s5.7,2.4,7.3,4.5C75.3,1048.6,75.8,1055.4,77.1,1055.4z"/>
<path class="st0" d="M337.6,1065.1c0.9,0,1.1-5.4,2.5-7.4c1.2-1.8,5.7-3,5.7-4s-4.3-1.3-5.8-3.1c-1.3-1.5-2.1-6.7-2.9-6.7
	c-0.9,0-1.4,5.1-2.6,6.8c-1.3,1.7-5.7,2.7-5.7,3.6s4.5,1.9,5.7,3.5C336.2,1059.8,336.6,1065.1,337.6,1065.1z"/>
<path class="st0" d="M479.4,968c0.9,0,1.1-5.4,2.5-7.4c1.2-1.8,5.7-3,5.7-4s-4.3-1.3-5.8-3.1c-1.3-1.5-2.1-6.7-2.9-6.7
	c-0.9,0-1.4,5.1-2.6,6.8c-1.3,1.7-5.7,2.7-5.7,3.6c0,0.9,4.5,1.9,5.7,3.5C477.9,962.7,478.3,968,479.4,968z"/>
<path class="st0" d="M228.7,770.4c0.9,0,1.1-5.4,2.5-7.4c1.2-1.8,5.7-3,5.7-4s-4.3-1.3-5.8-3.1c-1.3-1.5-2.1-6.7-2.9-6.7
	c-0.9,0-1.4,5.1-2.6,6.8c-1.3,1.7-5.7,2.7-5.7,3.6c0,0.9,4.5,1.9,5.7,3.5C227.3,765,227.7,770.4,228.7,770.4z"/>
<path class="st0" d="M87.9,678.7c0.9,0,1.1-5.4,2.5-7.4c1.2-1.8,5.7-3,5.7-4s-4.3-1.3-5.8-3.1c-1.3-1.5-2.1-6.7-2.9-6.7
	c-0.9,0-1.3,5.1-2.6,6.8c-1.3,1.7-5.7,2.7-5.7,3.6c0,0.9,4.5,1.9,5.7,3.5C86.5,673.3,86.9,678.7,87.9,678.7z"/>
<path class="st0" d="M210.7,943.6c0.5,0,0.6-3,1.4-4.1c0.7-1,3.2-1.6,3.2-2.3c0-0.6-2.4-0.7-3.2-1.7c-0.7-0.8-1.2-3.7-1.6-3.7
	c-0.5,0-0.8,2.8-1.4,3.8c-0.7,0.9-3.2,1.5-3.2,2s2.5,1.1,3.2,1.9C209.9,940.6,210.1,943.6,210.7,943.6z"/>
<path class="st0" d="M132.9,754.9c0.5,0,0.6-3,1.4-4.1c0.7-1,3.2-1.6,3.2-2.3c0-0.6-2.4-0.7-3.2-1.7c-0.7-0.8-1.2-3.7-1.6-3.7
	c-0.5,0-0.8,2.8-1.4,3.8c-0.7,0.9-3.2,1.5-3.2,2s2.5,1.1,3.2,1.9C132.1,751.9,132.4,754.9,132.9,754.9z"/>
<path class="st0" d="M129.3,1055.4c0.5,0,0.6-3,1.4-4.1c0.7-1,3.2-1.6,3.2-2.3c0-0.6-2.4-0.7-3.2-1.7c-0.7-0.8-1.2-3.7-1.6-3.7
	c-0.5,0-0.8,2.8-1.4,3.8c-0.7,0.9-3.2,1.5-3.2,2s2.5,1.1,3.2,1.9C128.5,1052.4,128.8,1055.4,129.3,1055.4z"/>
<path class="st0" d="M318.1,1024.7c0.5,0,0.6-3,1.4-4.1c0.7-1,3.2-1.6,3.2-2.3c0-0.6-2.4-0.7-3.2-1.7c-0.7-0.8-1.2-3.7-1.6-3.7
	c-0.5,0-0.8,2.8-1.4,3.8c-0.7,0.9-3.2,1.5-3.2,2s2.5,1.1,3.2,1.9C317.3,1021.8,317.5,1024.7,318.1,1024.7z"/>
<path class="st0" d="M449.4,935.9c0.5,0,0.6-3,1.4-4.1c0.7-1,3.2-1.6,3.2-2.3c0-0.6-2.4-0.7-3.2-1.7c-0.7-0.8-1.2-3.7-1.6-3.7
	c-0.5,0-0.8,2.8-1.4,3.8c-0.7,0.9-3.2,1.5-3.2,2s2.5,1.1,3.2,1.9C448.6,932.9,448.8,935.9,449.4,935.9z"/>
<path class="st0" d="M460.5,758.6c0.5,0,0.6-3,1.4-4.1c0.7-1,3.2-1.6,3.2-2.3c0-0.6-2.4-0.7-3.2-1.7c-0.7-0.8-1.2-3.7-1.6-3.7
	c-0.5,0-0.8,2.8-1.4,3.8c-0.7,0.9-3.2,1.5-3.2,2s2.5,1.1,3.2,1.9C459.7,755.7,459.9,758.6,460.5,758.6z"/>
<path class="st0" d="M216,670.9c0.5,0,0.6-3,1.4-4.1c0.7-1,3.2-1.6,3.2-2.3c0-0.6-2.4-0.7-3.2-1.7c-0.7-0.8-1.2-3.7-1.6-3.7
	c-0.5,0-0.8,2.8-1.4,3.8c-0.7,0.9-3.2,1.5-3.2,2s2.5,1.1,3.2,1.9C215.2,668,215.5,670.9,216,670.9z"/>
<path class="st0" d="M369.1,676.3c0.5,0,0.6-3,1.4-4.1c0.7-1,3.2-1.6,3.2-2.3c0-0.6-2.4-0.7-3.2-1.7c-0.7-0.8-1.2-3.7-1.6-3.7
	c-0.5,0-0.8,2.8-1.4,3.8c-0.7,0.9-3.2,1.5-3.2,2s2.5,1.1,3.2,1.9C368.3,673.3,368.6,676.3,369.1,676.3z"/>
<path class="st0" d="M193.1,496.9c-1.3,0-1.6,7.9-3.7,10.8c-1.8,2.6-8.4,4.4-8.4,5.9s6.3,1.9,8.4,4.5c1.8,2.2,3.1,9.9,4.3,9.9
	c1.3,0,2-7.4,3.8-9.9s8.4-3.9,8.4-5.3c0-1.4-6.5-2.8-8.4-5.1C195.2,504.8,194.6,496.9,193.1,496.9z"/>
<path class="st0" d="M465.7,176.4c-1.2,0-1.4,6.8-3.2,9.4c-1.5,2.2-7.3,3.8-7.3,5.2c0,1.3,5.4,1.6,7.3,3.9c1.6,1.9,2.6,8.6,3.8,8.6
	c1.1,0,1.7-6.4,3.3-8.6c1.6-2.2,7.3-3.4,7.3-4.6c0-1.2-5.7-2.4-7.3-4.5C467.5,183.2,467,176.4,465.7,176.4z"/>
<path class="st0" d="M63.4,263.8c-0.9,0-1.1,5.4-2.5,7.4c-1.2,1.8-5.7,3-5.7,4s4.3,1.3,5.8,3.1c1.3,1.5,2.1,6.7,2.9,6.7
	c0.9,0,1.4-5.1,2.6-6.8c1.3-1.7,5.7-2.7,5.7-3.6s-4.5-1.9-5.7-3.5C64.8,269.1,64.4,263.8,63.4,263.8z"/>
<path class="st0" d="M314,461.4c-0.9,0-1.1,5.4-2.5,7.4c-1.2,1.8-5.7,3-5.7,4s4.3,1.3,5.8,3.1c1.3,1.5,2.1,6.7,2.9,6.7
	c0.9,0,1.4-5.1,2.6-6.8c1.3-1.7,5.7-2.7,5.7-3.6s-4.5-1.9-5.7-3.5C315.5,466.8,315,461.4,314,461.4z"/>
<path class="st0" d="M454.8,553.1c-0.9,0-1.1,5.4-2.5,7.4c-1.2,1.8-5.7,3-5.7,4s4.3,1.3,5.8,3.1c1.3,1.5,2.1,6.7,2.9,6.7
	c0.9,0,1.3-5.1,2.6-6.8c1.3-1.7,5.7-2.7,5.7-3.6c0-0.9-4.5-1.9-5.7-3.5C456.3,558.5,455.8,553.1,454.8,553.1z"/>
<path class="st0" d="M332.1,288.2c-0.5,0-0.6,3-1.4,4.1c-0.7,1-3.2,1.6-3.2,2.3c0,0.6,2.4,0.7,3.2,1.7c0.7,0.8,1.2,3.7,1.6,3.7
	c0.5,0,0.8-2.8,1.4-3.8c0.7-0.9,3.2-1.5,3.2-2s-2.5-1.1-3.2-1.9C332.9,291.2,332.7,288.2,332.1,288.2z"/>
<path class="st0" d="M477.2,329.4c-0.5,0-0.6,3-1.4,4.1c-0.7,1-3.2,1.6-3.2,2.3c0,0.6,2.4,0.7,3.2,1.7c0.7,0.8,1.2,3.7,1.6,3.7
	c0.5,0,0.8-2.8,1.4-3.8c0.7-0.9,3.2-1.5,3.2-2s-2.5-1.1-3.2-1.9C478,332.3,477.7,329.4,477.2,329.4z"/>
<path class="st0" d="M409.8,476.9c-0.5,0-0.6,3-1.4,4.1c-0.7,1-3.2,1.6-3.2,2.3c0,0.6,2.4,0.7,3.2,1.7c0.7,0.8,1.2,3.7,1.6,3.7
	c0.5,0,0.8-2.8,1.4-3.8c0.7-0.9,3.2-1.5,3.2-2s-2.5-1.1-3.2-1.9C410.6,479.9,410.4,476.9,409.8,476.9z"/>
<path class="st0" d="M413.4,176.4c-0.5,0-0.6,3-1.4,4.1c-0.7,1-3.2,1.6-3.2,2.3c0,0.6,2.4,0.7,3.2,1.7c0.7,0.8,1.2,3.7,1.6,3.7
	c0.5,0,0.8-2.8,1.4-3.8c0.7-0.9,3.2-1.5,3.2-2s-2.5-1.1-3.2-1.9C414.2,179.4,414,176.4,413.4,176.4z"/>
<path class="st0" d="M224.7,207.1c-0.5,0-0.6,3-1.4,4.1c-0.7,1-3.2,1.6-3.2,2.3c0,0.6,2.4,0.7,3.2,1.7c0.7,0.8,1.2,3.7,1.6,3.7
	c0.5,0,0.8-2.8,1.4-3.8c0.7-0.9,3.2-1.5,3.2-2s-2.5-1.1-3.2-1.9C225.5,210,225.2,207.1,224.7,207.1z"/>
<path class="st0" d="M93.4,295.9c-0.5,0-0.6,3-1.4,4.1c-0.7,1-3.2,1.6-3.2,2.3c0,0.6,2.4,0.7,3.2,1.7c0.7,0.8,1.2,3.7,1.6,3.7
	c0.5,0,0.8-2.8,1.4-3.8c0.7-0.9,3.2-1.5,3.2-2s-2.5-1.1-3.2-1.9C94.2,298.9,94,295.9,93.4,295.9z"/>
<path class="st0" d="M82.3,473.2c-0.5,0-0.6,3-1.4,4.1c-0.7,1-3.2,1.6-3.2,2.3c0,0.6,2.4,0.7,3.2,1.7c0.7,0.8,1.2,3.7,1.6,3.7
	c0.5,0,0.8-2.8,1.4-3.8c0.7-0.9,3.2-1.5,3.2-2s-2.5-1.1-3.2-1.9C83.1,476.1,82.9,473.2,82.3,473.2z"/>
<path class="st0" d="M326.7,560.9c-0.5,0-0.6,3-1.4,4.1c-0.7,1-3.2,1.6-3.2,2.3c0,0.6,2.4,0.7,3.2,1.7c0.7,0.8,1.2,3.7,1.6,3.7
	c0.5,0,0.8-2.8,1.4-3.8c0.7-0.9,3.2-1.5,3.2-2s-2.5-1.1-3.2-1.9C327.5,563.8,327.3,560.9,326.7,560.9z"/>
<path class="st0" d="M173.6,555.5c-0.5,0-0.6,3-1.4,4.1c-0.7,1-3.2,1.6-3.2,2.3c0,0.6,2.4,0.7,3.2,1.7c0.7,0.8,1.2,3.7,1.6,3.7
	c0.5,0,0.8-2.8,1.4-3.8c0.7-0.9,3.2-1.5,3.2-2s-2.5-1.1-3.2-1.9C174.4,558.5,174.2,555.5,173.6,555.5z"/>
<path class="st0" d="M802.9,295c-1,0-1.2,6-2.8,8.2c-1.3,2-6.4,3.3-6.4,4.5c0,1.1,4.8,1.4,6.4,3.4c1.4,1.7,2.3,7.5,3.3,7.5
	s1.5-5.6,2.9-7.5s6.4-3,6.4-4c0-1.1-5-2.1-6.4-3.9C804.5,301,804.1,295,802.9,295z"/>
<path class="st0" d="M1009.8,161.7c-1.2,0-1.4,6.8-3.2,9.4c-1.5,2.2-7.3,3.8-7.3,5.2c0,1.3,5.4,1.6,7.3,3.9c1.6,1.9,2.6,8.6,3.8,8.6
	c1.1,0,1.7-6.4,3.3-8.6c1.6-2.2,7.3-3.4,7.3-4.6c0-1.2-5.7-2.4-7.3-4.5C1011.6,168.5,1011.1,161.7,1009.8,161.7z"/>
<path class="st0" d="M749.3,152c-0.9,0-1.1,5.4-2.5,7.4c-1.2,1.8-5.7,3-5.7,4s4.3,1.3,5.8,3.1c1.3,1.5,2.1,6.7,2.9,6.7
	c0.9,0,1.3-5.1,2.6-6.8s5.7-2.7,5.7-3.6c0-0.9-4.5-1.9-5.7-3.5C750.7,157.4,750.3,152,749.3,152z"/>
<path class="st0" d="M607.5,249.1c-0.9,0-1.1,5.4-2.5,7.4c-1.2,1.8-5.7,3-5.7,4s4.3,1.3,5.8,3.1c1.3,1.5,2.1,6.7,2.9,6.7
	c0.9,0,1.4-5.1,2.6-6.8c1.3-1.7,5.7-2.7,5.7-3.6s-4.5-1.9-5.7-3.5C609,254.5,608.5,249.1,607.5,249.1z"/>
<path class="st0" d="M858.2,446.8c-0.9,0-1.1,5.4-2.5,7.4c-1.2,1.8-5.7,3-5.7,4s4.3,1.3,5.8,3.1c1.3,1.5,2.1,6.7,2.9,6.7
	c0.9,0,1.4-5.1,2.6-6.8c1.3-1.7,5.7-2.7,5.7-3.6s-4.5-1.9-5.7-3.5C859.6,452.1,859.2,446.8,858.2,446.8z"/>
<path class="st0" d="M999,538.5c-0.9,0-1.1,5.4-2.5,7.4c-1.2,1.8-5.7,3-5.7,4s4.3,1.3,5.8,3.1c1.3,1.5,2.1,6.7,2.9,6.7
	c0.9,0,1.3-5.1,2.6-6.8s5.7-2.7,5.7-3.6c0-0.9-4.5-1.9-5.7-3.5C1000.4,543.8,1000,538.5,999,538.5z"/>
<path class="st0" d="M876.2,273.6c-0.5,0-0.6,3-1.4,4.1c-0.7,1-3.2,1.6-3.2,2.3c0,0.6,2.4,0.7,3.2,1.7c0.7,0.8,1.2,3.7,1.6,3.7
	c0.5,0,0.8-2.8,1.4-3.8c0.7-0.9,3.2-1.5,3.2-2s-2.5-1.1-3.2-1.9C877,276.6,876.8,273.6,876.2,273.6z"/>
<path class="st0" d="M1021.3,314.7c-0.5,0-0.6,3-1.4,4.1c-0.7,1-3.2,1.6-3.2,2.3c0,0.6,2.4,0.7,3.2,1.7c0.7,0.8,1.2,3.7,1.6,3.7
	c0.5,0,0.8-2.8,1.4-3.8c0.7-0.9,3.2-1.5,3.2-2s-2.5-1.1-3.2-1.9C1022.1,317.7,1021.8,314.7,1021.3,314.7z"/>
<path class="st0" d="M954,462.3c-0.5,0-0.6,3-1.4,4.1c-0.7,1-3.2,1.6-3.2,2.3c0,0.6,2.4,0.7,3.2,1.7c0.7,0.8,1.2,3.7,1.6,3.7
	c0.5,0,0.8-2.8,1.4-3.8c0.7-0.9,3.2-1.5,3.2-2s-2.5-1.1-3.2-1.9C954.8,465.2,954.5,462.3,954,462.3z"/>
<path class="st0" d="M957.6,161.7c-0.5,0-0.6,3-1.4,4.1c-0.7,1-3.2,1.6-3.2,2.3c0,0.6,2.4,0.7,3.2,1.7c0.7,0.8,1.2,3.7,1.6,3.7
	c0.5,0,0.8-2.8,1.4-3.8c0.7-0.9,3.2-1.5,3.2-2s-2.5-1.1-3.2-1.9C958.4,164.7,958.1,161.7,957.6,161.7z"/>
<path class="st0" d="M768.8,192.4c-0.5,0-0.6,3-1.4,4.1c-0.7,1-3.2,1.6-3.2,2.3c0,0.6,2.4,0.7,3.2,1.7c0.7,0.8,1.2,3.7,1.6,3.7
	c0.5,0,0.8-2.8,1.4-3.8c0.7-0.9,3.2-1.5,3.2-2s-2.5-1.1-3.2-1.9C769.6,195.4,769.4,192.4,768.8,192.4z"/>
<path class="st0" d="M637.5,281.2c-0.5,0-0.6,3-1.4,4.1c-0.7,1-3.2,1.6-3.2,2.3c0,0.6,2.4,0.7,3.2,1.7c0.7,0.8,1.2,3.7,1.6,3.7
	s0.8-2.8,1.4-3.8c0.7-0.9,3.2-1.5,3.2-2s-2.5-1.1-3.2-1.9C638.3,284.2,638.1,281.2,637.5,281.2z"/>
<path class="st0" d="M626.4,458.5c-0.5,0-0.6,3-1.4,4.1c-0.7,1-3.2,1.6-3.2,2.3c0,0.6,2.4,0.7,3.2,1.7c0.7,0.8,1.2,3.7,1.6,3.7
	c0.5,0,0.8-2.8,1.4-3.8c0.7-0.9,3.2-1.5,3.2-2s-2.5-1.1-3.2-1.9C627.2,461.5,627,458.5,626.4,458.5z"/>
<path class="st0" d="M870.9,546.2c-0.5,0-0.6,3-1.4,4.1c-0.7,1-3.2,1.6-3.2,2.3c0,0.6,2.4,0.7,3.2,1.7c0.7,0.8,1.2,3.7,1.6,3.7
	c0.5,0,0.8-2.8,1.4-3.8c0.7-0.9,3.2-1.5,3.2-2s-2.5-1.1-3.2-1.9C871.7,549.2,871.4,546.2,870.9,546.2z"/>
<path class="st0" d="M717.8,540.9c-0.5,0-0.6,3-1.4,4.1c-0.7,1-3.2,1.6-3.2,2.3c0,0.6,2.4,0.7,3.2,1.7c0.7,0.8,1.2,3.7,1.6,3.7
	c0.5,0,0.8-2.8,1.4-3.8c0.7-0.9,3.2-1.5,3.2-2s-2.5-1.1-3.2-1.9C718.6,543.9,718.3,540.9,717.8,540.9z"/>
<path class="st0" d="M828.1,907.5c1,0,1.2-6,2.8-8.2c1.3-2,6.4-3.3,6.4-4.5c0-1.1-4.8-1.4-6.4-3.4c-1.4-1.7-2.3-7.5-3.3-7.5
	s-1.5,5.6-2.9,7.5s-6.4,3-6.4,4c0,1.1,5,2.1,6.4,3.9C826.5,901.5,827,907.5,828.1,907.5z"/>
<path class="st0" d="M893.8,720.2c1.3,0,1.6-7.9,3.7-10.8c1.8-2.6,8.4-4.4,8.4-5.9s-6.3-1.9-8.4-4.5c-1.8-2.2-3.1-9.9-4.3-9.9
	c-1.3,0-2,7.4-3.8,9.9s-8.4,3.9-8.4,5.3c0,1.4,6.5,2.8,8.4,5.1C891.6,712.4,892.3,720.2,893.8,720.2z"/>
<path class="st0" d="M621.2,1040.8c1.2,0,1.4-6.8,3.2-9.4c1.5-2.2,7.3-3.8,7.3-5.2c0-1.3-5.4-1.6-7.3-3.9c-1.6-1.9-2.6-8.6-3.8-8.6
	c-1.1,0-1.7,6.4-3.3,8.6s-7.3,3.4-7.3,4.6s5.7,2.4,7.3,4.5C619.4,1034,619.9,1040.8,621.2,1040.8z"/>
<path class="st0" d="M881.7,1050.5c0.9,0,1.1-5.4,2.5-7.4c1.2-1.8,5.7-3,5.7-4s-4.3-1.3-5.8-3.1c-1.3-1.5-2.1-6.7-2.9-6.7
	c-0.9,0-1.4,5.1-2.6,6.8c-1.3,1.7-5.7,2.7-5.7,3.6s4.5,1.9,5.7,3.5C880.3,1045.1,880.7,1050.5,881.7,1050.5z"/>
<path class="st0" d="M1023.5,953.4c0.9,0,1.1-5.4,2.5-7.4c1.2-1.8,5.7-3,5.7-4s-4.3-1.3-5.8-3.1c-1.3-1.5-2.1-6.7-2.9-6.7
	c-0.9,0-1.4,5.1-2.6,6.8c-1.3,1.7-5.7,2.7-5.7,3.6c0,0.9,4.5,1.9,5.7,3.5C1022,948,1022.5,953.4,1023.5,953.4z"/>
<path class="st0" d="M772.9,755.7c0.9,0,1.1-5.4,2.5-7.4c1.2-1.8,5.7-3,5.7-4s-4.3-1.3-5.8-3.1c-1.3-1.5-2.1-6.7-2.9-6.7
	c-0.9,0-1.4,5.1-2.6,6.8c-1.3,1.7-5.7,2.7-5.7,3.6c0,0.9,4.5,1.9,5.7,3.5C771.4,750.4,771.8,755.7,772.9,755.7z"/>
<path class="st0" d="M632.1,664.1c0.9,0,1.1-5.4,2.5-7.4c1.2-1.8,5.7-3,5.7-4s-4.3-1.3-5.8-3.1c-1.3-1.5-2.1-6.7-2.9-6.7
	c-0.9,0-1.3,5.1-2.6,6.8s-5.7,2.7-5.7,3.6c0,0.9,4.5,1.9,5.7,3.5C630.6,658.7,631,664.1,632.1,664.1z"/>
<path class="st0" d="M754.8,928.9c0.5,0,0.6-3,1.4-4.1c0.7-1,3.2-1.6,3.2-2.3c0-0.6-2.4-0.7-3.2-1.7c-0.7-0.8-1.2-3.7-1.6-3.7
	c-0.5,0-0.8,2.8-1.4,3.8c-0.7,0.9-3.2,1.5-3.2,2s2.5,1.1,3.2,1.9C754,925.9,754.2,928.9,754.8,928.9z"/>
<path class="st0" d="M609.7,887.8c0.5,0,0.6-3,1.4-4.1c0.7-1,3.2-1.6,3.2-2.3c0-0.6-2.4-0.7-3.2-1.7c-0.7-0.8-1.2-3.7-1.6-3.7
	c-0.5,0-0.8,2.8-1.4,3.8c-0.7,0.9-3.2,1.5-3.2,2s2.5,1.1,3.2,1.9C608.9,884.8,609.2,887.8,609.7,887.8z"/>
<path class="st0" d="M677.1,740.2c0.5,0,0.6-3,1.4-4.1c0.7-1,3.2-1.6,3.2-2.3c0-0.6-2.4-0.7-3.2-1.7c-0.7-0.8-1.2-3.7-1.6-3.7
	c-0.5,0-0.8,2.8-1.4,3.8c-0.7,0.9-3.2,1.5-3.2,2s2.5,1.1,3.2,1.9C676.3,737.3,676.5,740.2,677.1,740.2z"/>
<path class="st0" d="M673.5,1040.8c0.5,0,0.6-3,1.4-4.1c0.7-1,3.2-1.6,3.2-2.3c0-0.6-2.4-0.7-3.2-1.7c-0.7-0.8-1.2-3.7-1.6-3.7
	c-0.5,0-0.8,2.8-1.4,3.8c-0.7,0.9-3.2,1.5-3.2,2s2.5,1.1,3.2,1.9C672.7,1037.8,672.9,1040.8,673.5,1040.8z"/>
<path class="st0" d="M862.2,1010.1c0.5,0,0.6-3,1.4-4.1c0.7-1,3.2-1.6,3.2-2.3c0-0.6-2.4-0.7-3.2-1.7c-0.7-0.8-1.2-3.7-1.6-3.7
	c-0.5,0-0.8,2.8-1.4,3.8c-0.7,0.9-3.2,1.5-3.2,2s2.5,1.1,3.2,1.9C861.4,1007.1,861.7,1010.1,862.2,1010.1z"/>
<path class="st0" d="M993.5,921.3c0.5,0,0.6-3,1.4-4.1c0.7-1,3.2-1.6,3.2-2.3c0-0.6-2.4-0.7-3.2-1.7c-0.7-0.8-1.2-3.7-1.6-3.7
	c-0.5,0-0.8,2.8-1.4,3.8c-0.7,0.9-3.2,1.5-3.2,2s2.5,1.1,3.2,1.9C992.7,918.3,992.9,921.3,993.5,921.3z"/>
<path class="st0" d="M1004.6,744c0.5,0,0.6-3,1.4-4.1c0.7-1,3.2-1.6,3.2-2.3c0-0.6-2.4-0.7-3.2-1.7c-0.7-0.8-1.2-3.7-1.6-3.7
	c-0.5,0-0.8,2.8-1.4,3.8c-0.7,0.9-3.2,1.5-3.2,2s2.5,1.1,3.2,1.9C1003.8,741,1004,744,1004.6,744z"/>
<path class="st0" d="M760.2,656.3c0.5,0,0.6-3,1.4-4.1c0.7-1,3.2-1.6,3.2-2.3c0-0.6-2.4-0.7-3.2-1.7c-0.7-0.8-1.2-3.7-1.6-3.7
	c-0.5,0-0.8,2.8-1.4,3.8c-0.7,0.9-3.2,1.5-3.2,2s2.5,1.1,3.2,1.9C759.4,653.3,759.6,656.3,760.2,656.3z"/>
<path class="st0" d="M913.2,661.6c0.5,0,0.6-3,1.4-4.1c0.7-1,3.2-1.6,3.2-2.3c0-0.6-2.4-0.7-3.2-1.7c-0.7-0.8-1.2-3.7-1.6-3.7
	c-0.5,0-0.8,2.8-1.4,3.8c-0.7,0.9-3.2,1.5-3.2,2s2.5,1.1,3.2,1.9C912.4,658.6,912.7,661.6,913.2,661.6z"/>
<path class="st0" d="M1339.4,905.3c1,0,1.2-6,2.8-8.2c1.3-2,6.4-3.3,6.4-4.5c0-1.1-4.8-1.4-6.4-3.4c-1.4-1.7-2.3-7.5-3.3-7.5
	s-1.5,5.6-2.9,7.5s-6.4,3-6.4,4c0,1.1,5,2.1,6.4,3.9C1337.8,899.3,1338.3,905.3,1339.4,905.3z"/>
<path class="st0" d="M1405.1,718.1c1.3,0,1.6-7.9,3.7-10.8c1.8-2.6,8.4-4.4,8.4-5.9s-6.3-1.9-8.4-4.5c-1.8-2.2-3.1-9.9-4.3-9.9
	c-1.3,0-2,7.4-3.8,9.9s-8.4,3.9-8.4,5.3c0,1.4,6.5,2.8,8.4,5.1C1403,710.2,1403.6,718.1,1405.1,718.1z"/>
<path class="st0" d="M1132.5,1038.6c1.2,0,1.4-6.8,3.2-9.4c1.5-2.2,7.3-3.8,7.3-5.2c0-1.3-5.4-1.6-7.3-3.9c-1.6-1.9-2.6-8.6-3.8-8.6
	c-1.1,0-1.7,6.4-3.3,8.6c-1.6,2.2-7.3,3.4-7.3,4.6c0,1.2,5.7,2.4,7.3,4.5C1130.7,1031.8,1131.2,1038.6,1132.5,1038.6z"/>
<path class="st0" d="M1393,1048.3c0.9,0,1.1-5.4,2.5-7.4c1.2-1.8,5.7-3,5.7-4s-4.3-1.3-5.8-3.1c-1.3-1.5-2.1-6.7-2.9-6.7
	c-0.9,0-1.3,5.1-2.6,6.8c-1.3,1.7-5.7,2.7-5.7,3.6s4.5,1.9,5.7,3.5C1391.6,1043,1392,1048.3,1393,1048.3z"/>
<path class="st0" d="M1534.8,951.2c0.9,0,1.1-5.4,2.5-7.4c1.2-1.8,5.7-3,5.7-4s-4.3-1.3-5.8-3.1c-1.3-1.5-2.1-6.7-2.9-6.7
	c-0.9,0-1.3,5.1-2.6,6.8c-1.3,1.7-5.7,2.7-5.7,3.6c0,0.9,4.5,1.9,5.7,3.5C1533.4,945.8,1533.8,951.2,1534.8,951.2z"/>
<path class="st0" d="M1284.2,753.6c0.9,0,1.1-5.4,2.5-7.4c1.2-1.8,5.7-3,5.7-4s-4.3-1.3-5.8-3.1c-1.3-1.5-2.1-6.7-2.9-6.7
	c-0.9,0-1.3,5.1-2.6,6.8c-1.3,1.7-5.7,2.7-5.7,3.6c0,0.9,4.5,1.9,5.7,3.5C1282.7,748.2,1283.2,753.6,1284.2,753.6z"/>
<path class="st0" d="M1143.4,661.9c0.9,0,1.1-5.4,2.5-7.4c1.2-1.8,5.7-3,5.7-4s-4.3-1.3-5.8-3.1c-1.3-1.5-2.1-6.7-2.9-6.7
	c-0.9,0-1.3,5.1-2.6,6.8c-1.3,1.7-5.7,2.7-5.7,3.6c0,0.9,4.5,1.9,5.7,3.5C1141.9,656.5,1142.4,661.9,1143.4,661.9z"/>
<path class="st0" d="M1266.1,926.8c0.5,0,0.6-3,1.4-4.1c0.7-1,3.2-1.6,3.2-2.3c0-0.6-2.4-0.7-3.2-1.7c-0.7-0.8-1.2-3.7-1.6-3.7
	s-0.8,2.8-1.4,3.8c-0.7,0.9-3.2,1.5-3.2,2s2.5,1.1,3.2,1.9C1265.3,923.8,1265.5,926.8,1266.1,926.8z"/>
<path class="st0" d="M1121.1,885.6c0.5,0,0.6-3,1.4-4.1c0.7-1,3.2-1.6,3.2-2.3c0-0.6-2.4-0.7-3.2-1.7c-0.7-0.8-1.2-3.7-1.6-3.7
	c-0.5,0-0.8,2.8-1.4,3.8c-0.7,0.9-3.2,1.5-3.2,2s2.5,1.1,3.2,1.9C1120.3,882.7,1120.5,885.6,1121.1,885.6z"/>
<path class="st0" d="M1188.4,738.1c0.5,0,0.6-3,1.4-4.1c0.7-1,3.2-1.6,3.2-2.3c0-0.6-2.4-0.7-3.2-1.7c-0.7-0.8-1.2-3.7-1.6-3.7
	c-0.5,0-0.8,2.8-1.4,3.8c-0.7,0.9-3.2,1.5-3.2,2s2.5,1.1,3.2,1.9C1187.6,735.1,1187.8,738.1,1188.4,738.1z"/>
<path class="st0" d="M1184.8,1038.6c0.5,0,0.6-3,1.4-4.1c0.7-1,3.2-1.6,3.2-2.3c0-0.6-2.4-0.7-3.2-1.7c-0.7-0.8-1.2-3.7-1.6-3.7
	s-0.8,2.8-1.4,3.8c-0.7,0.9-3.2,1.5-3.2,2s2.5,1.1,3.2,1.9C1184,1035.6,1184.2,1038.6,1184.8,1038.6z"/>
<path class="st0" d="M1504.8,919.1c0.5,0,0.6-3,1.4-4.1c0.7-1,3.2-1.6,3.2-2.3c0-0.6-2.4-0.7-3.2-1.7c-0.7-0.8-1.2-3.7-1.6-3.7
	s-0.8,2.8-1.4,3.8c-0.7,0.9-3.2,1.5-3.2,2s2.5,1.1,3.2,1.9C1504,916.1,1504.3,919.1,1504.8,919.1z"/>
<path class="st0" d="M1515.9,741.8c0.5,0,0.6-3,1.4-4.1c0.7-1,3.2-1.6,3.2-2.3c0-0.6-2.4-0.7-3.2-1.7c-0.7-0.8-1.2-3.7-1.6-3.7
	c-0.5,0-0.8,2.8-1.4,3.8c-0.7,0.9-3.2,1.5-3.2,2s2.5,1.1,3.2,1.9C1515.1,738.9,1515.3,741.8,1515.9,741.8z"/>
<path class="st0" d="M1424.6,659.4c0.5,0,0.6-3,1.4-4.1c0.7-1,3.2-1.6,3.2-2.3c0-0.6-2.4-0.7-3.2-1.7c-0.7-0.8-1.2-3.7-1.6-3.7
	c-0.5,0-0.8,2.8-1.4,3.8c-0.7,0.9-3.2,1.5-3.2,2s2.5,1.1,3.2,1.9C1423.8,656.5,1424,659.4,1424.6,659.4z"/>
<path class="st0" d="M1314.2,292.9c-1,0-1.2,6-2.8,8.2c-1.3,2-6.4,3.3-6.4,4.5c0,1.1,4.8,1.4,6.4,3.4c1.4,1.7,2.3,7.5,3.3,7.5
	s1.5-5.6,2.9-7.5s6.4-3,6.4-4c0-1.1-5-2.1-6.4-3.9C1315.8,298.8,1315.4,292.9,1314.2,292.9z"/>
<path class="st0" d="M1248.6,480.1c-1.3,0-1.6,7.9-3.7,10.8c-1.8,2.6-8.4,4.4-8.4,5.9s6.3,1.9,8.4,4.5c1.8,2.2,3.1,9.9,4.3,9.9
	c1.3,0,2-7.4,3.8-9.9s8.4-3.9,8.4-5.3s-6.5-2.8-8.4-5.1C1250.7,488,1250.1,480.1,1248.6,480.1z"/>
<path class="st0" d="M1521.1,159.6c-1.2,0-1.4,6.8-3.2,9.4c-1.5,2.2-7.3,3.8-7.3,5.2c0,1.3,5.4,1.6,7.3,3.9c1.6,1.9,2.6,8.6,3.8,8.6
	c1.1,0,1.7-6.4,3.3-8.6c1.6-2.2,7.3-3.4,7.3-4.6c0-1.2-5.7-2.4-7.3-4.5C1522.9,166.4,1522.4,159.6,1521.1,159.6z"/>
<path class="st0" d="M1260.6,149.9c-0.9,0-1.1,5.4-2.5,7.4c-1.2,1.8-5.7,3-5.7,4s4.3,1.3,5.8,3.1c1.3,1.5,2.1,6.7,2.9,6.7
	c0.9,0,1.3-5.1,2.6-6.8c1.3-1.7,5.7-2.7,5.7-3.6c0-0.9-4.5-1.9-5.7-3.5C1262.1,155.2,1261.6,149.9,1260.6,149.9z"/>
<path class="st0" d="M1118.8,247c-0.9,0-1.1,5.4-2.5,7.4c-1.2,1.8-5.7,3-5.7,4s4.3,1.3,5.8,3.1c1.3,1.5,2.1,6.7,2.9,6.7
	c0.9,0,1.3-5.1,2.6-6.8c1.3-1.7,5.7-2.7,5.7-3.6s-4.5-1.9-5.7-3.5C1120.3,252.3,1119.9,247,1118.8,247z"/>
<path class="st0" d="M1369.5,444.6c-0.9,0-1.1,5.4-2.5,7.4c-1.2,1.8-5.7,3-5.7,4s4.3,1.3,5.8,3.1c1.3,1.5,2.1,6.7,2.9,6.7
	c0.9,0,1.3-5.1,2.6-6.8c1.3-1.7,5.7-2.7,5.7-3.6s-4.5-1.9-5.7-3.5C1370.9,449.9,1370.5,444.6,1369.5,444.6z"/>
<path class="st0" d="M1387.5,271.4c-0.5,0-0.6,3-1.4,4.1c-0.7,1-3.2,1.6-3.2,2.3c0,0.6,2.4,0.7,3.2,1.7c0.7,0.8,1.2,3.7,1.6,3.7
	c0.5,0,0.8-2.8,1.4-3.8c0.7-0.9,3.2-1.5,3.2-2s-2.5-1.1-3.2-1.9C1388.3,274.4,1388.1,271.4,1387.5,271.4z"/>
<path class="st0" d="M1532.6,312.5c-0.5,0-0.6,3-1.4,4.1c-0.7,1-3.2,1.6-3.2,2.3c0,0.6,2.4,0.7,3.2,1.7c0.7,0.8,1.2,3.7,1.6,3.7
	c0.5,0,0.8-2.8,1.4-3.8c0.7-0.9,3.2-1.5,3.2-2s-2.5-1.1-3.2-1.9C1533.4,315.5,1533.2,312.5,1532.6,312.5z"/>
<path class="st0" d="M1465.3,460.1c-0.5,0-0.6,3-1.4,4.1c-0.7,1-3.2,1.6-3.2,2.3c0,0.6,2.4,0.7,3.2,1.7c0.7,0.8,1.2,3.7,1.6,3.7
	c0.5,0,0.8-2.8,1.4-3.8c0.7-0.9,3.2-1.5,3.2-2s-2.5-1.1-3.2-1.9C1466.1,463.1,1465.8,460.1,1465.3,460.1z"/>
<path class="st0" d="M1468.9,159.6c-0.5,0-0.6,3-1.4,4.1c-0.7,1-3.2,1.6-3.2,2.3c0,0.6,2.4,0.7,3.2,1.7c0.7,0.8,1.2,3.7,1.6,3.7
	c0.5,0,0.8-2.8,1.4-3.8c0.7-0.9,3.2-1.5,3.2-2s-2.5-1.1-3.2-1.9C1469.7,162.5,1469.4,159.6,1468.9,159.6z"/>
<path class="st0" d="M1280.1,190.3c-0.5,0-0.6,3-1.4,4.1c-0.7,1-3.2,1.6-3.2,2.3c0,0.6,2.4,0.7,3.2,1.7c0.7,0.8,1.2,3.7,1.6,3.7
	c0.5,0,0.8-2.8,1.4-3.8c0.7-0.9,3.2-1.5,3.2-2s-2.5-1.1-3.2-1.9C1280.9,193.2,1280.7,190.3,1280.1,190.3z"/>
<path class="st0" d="M1148.8,279.1c-0.5,0-0.6,3-1.4,4.1c-0.7,1-3.2,1.6-3.2,2.3c0,0.6,2.4,0.7,3.2,1.7c0.7,0.8,1.2,3.7,1.6,3.7
	c0.5,0,0.8-2.8,1.4-3.8c0.7-0.9,3.2-1.5,3.2-2s-2.5-1.1-3.2-1.9C1149.6,282,1149.4,279.1,1148.8,279.1z"/>
<path class="st0" d="M1137.7,456.3c-0.5,0-0.6,3-1.4,4.1c-0.7,1-3.2,1.6-3.2,2.3c0,0.6,2.4,0.7,3.2,1.7c0.7,0.8,1.2,3.7,1.6,3.7
	c0.5,0,0.8-2.8,1.4-3.8c0.7-0.9,3.2-1.5,3.2-2s-2.5-1.1-3.2-1.9C1138.5,459.3,1138.3,456.3,1137.7,456.3z"/>
<path class="st0" d="M1382.2,544c-0.5,0-0.6,3-1.4,4.1c-0.7,1-3.2,1.6-3.2,2.3c0,0.6,2.4,0.7,3.2,1.7c0.7,0.8,1.2,3.7,1.6,3.7
	c0.5,0,0.8-2.8,1.4-3.8c0.7-0.9,3.2-1.5,3.2-2s-2.5-1.1-3.2-1.9C1383,547,1382.7,544,1382.2,544z"/>
<path class="st0" d="M1229.1,538.7c-0.5,0-0.6,3-1.4,4.1c-0.7,1-3.2,1.6-3.2,2.3c0,0.6,2.4,0.7,3.2,1.7c0.7,0.8,1.2,3.7,1.6,3.7
	c0.5,0,0.8-2.8,1.4-3.8c0.7-0.9,3.2-1.5,3.2-2s-2.5-1.1-3.2-1.9C1229.9,541.7,1229.6,538.7,1229.1,538.7z"/>
<path class="st0" d="M1858.4,278.2c-1,0-1.2,6-2.8,8.2c-1.3,2-6.4,3.3-6.4,4.5c0,1.1,4.8,1.4,6.4,3.4c1.4,1.7,2.3,7.5,3.3,7.5
	s1.5-5.6,2.9-7.5s6.4-3,6.4-4c0-1.1-5-2.1-6.4-3.9C1860,284.2,1859.5,278.2,1858.4,278.2z"/>
<path class="st0" d="M1792.7,465.5c-1.3,0-1.6,7.9-3.7,10.8c-1.8,2.6-8.4,4.4-8.4,5.9s6.3,1.9,8.4,4.5c1.8,2.2,3.1,9.9,4.3,9.9
	c1.3,0,2-7.4,3.8-9.9s8.4-3.9,8.4-5.3s-6.5-2.8-8.4-5.1C1794.8,473.3,1794.2,465.5,1792.7,465.5z"/>
<path class="st0" d="M1804.7,135.2c-0.9,0-1.1,5.4-2.5,7.4c-1.2,1.8-5.7,3-5.7,4s4.3,1.3,5.8,3.1c1.3,1.5,2.1,6.7,2.9,6.7
	c0.9,0,1.3-5.1,2.6-6.8c1.3-1.7,5.7-2.7,5.7-3.6c0-0.9-4.5-1.9-5.7-3.5C1806.2,140.6,1805.8,135.2,1804.7,135.2z"/>
<path class="st0" d="M1681.9,441.7c-0.5,0-0.6,3-1.4,4.1c-0.7,1-3.2,1.6-3.2,2.3c0,0.6,2.4,0.7,3.2,1.7c0.7,0.8,1.2,3.7,1.6,3.7
	c0.5,0,0.8-2.8,1.4-3.8c0.7-0.9,3.2-1.5,3.2-2s-2.5-1.1-3.2-1.9C1682.7,444.7,1682.4,441.7,1681.9,441.7z"/>
<path class="st0" d="M1773.2,524.1c-0.5,0-0.6,3-1.4,4.1c-0.7,1-3.2,1.6-3.2,2.3c0,0.6,2.4,0.7,3.2,1.7c0.7,0.8,1.2,3.7,1.6,3.7
	c0.5,0,0.8-2.8,1.4-3.8c0.7-0.9,3.2-1.5,3.2-2s-2.5-1.1-3.2-1.9C1774,527.1,1773.8,524.1,1773.2,524.1z"/>
<path class="st0" d="M1883.5,890.6c1,0,1.2-6,2.8-8.2c1.3-2,6.4-3.3,6.4-4.5c0-1.1-4.8-1.4-6.4-3.4c-1.4-1.7-2.3-7.5-3.3-7.5
	s-1.5,5.6-2.9,7.5s-6.4,3-6.4,4c0,1.1,5,2.1,6.4,3.9C1881.9,884.7,1882.4,890.6,1883.5,890.6z"/>
<path class="st0" d="M1676.7,1024c1.2,0,1.4-6.8,3.2-9.4c1.5-2.2,7.3-3.8,7.3-5.2c0-1.3-5.4-1.6-7.3-3.9c-1.6-1.9-2.6-8.6-3.8-8.6
	c-1.1,0-1.7,6.4-3.3,8.6c-1.6,2.2-7.3,3.4-7.3,4.6c0,1.2,5.7,2.4,7.3,4.5C1674.8,1017.1,1675.4,1024,1676.7,1024z"/>
<path class="st0" d="M1828.3,738.9c0.9,0,1.1-5.4,2.5-7.4c1.2-1.8,5.7-3,5.7-4s-4.3-1.3-5.8-3.1c-1.3-1.5-2.1-6.7-2.9-6.7
	c-0.9,0-1.3,5.1-2.6,6.8c-1.3,1.7-5.7,2.7-5.7,3.6c0,0.9,4.5,1.9,5.7,3.5C1826.9,733.6,1827.3,738.9,1828.3,738.9z"/>
<path class="st0" d="M1687.5,647.2c0.9,0,1.1-5.4,2.5-7.4c1.2-1.8,5.7-3,5.7-4s-4.3-1.3-5.8-3.1c-1.3-1.5-2.1-6.7-2.9-6.7
	c-0.9,0-1.3,5.1-2.6,6.8c-1.3,1.7-5.7,2.7-5.7,3.6c0,0.9,4.5,1.9,5.7,3.5C1686.1,641.9,1686.5,647.2,1687.5,647.2z"/>
<path class="st0" d="M1810.2,912.1c0.5,0,0.6-3,1.4-4.1c0.7-1,3.2-1.6,3.2-2.3c0-0.6-2.4-0.7-3.2-1.7c-0.7-0.8-1.2-3.7-1.6-3.7
	c-0.5,0-0.8,2.8-1.4,3.8c-0.7,0.9-3.2,1.5-3.2,2s2.5,1.1,3.2,1.9C1809.4,909.1,1809.7,912.1,1810.2,912.1z"/>
<path class="st0" d="M1665.2,871c0.5,0,0.6-3,1.4-4.1c0.7-1,3.2-1.6,3.2-2.3c0-0.6-2.4-0.7-3.2-1.7c-0.7-0.8-1.2-3.7-1.6-3.7
	c-0.5,0-0.8,2.8-1.4,3.8c-0.7,0.9-3.2,1.5-3.2,2s2.5,1.1,3.2,1.9C1664.4,868,1664.6,871,1665.2,871z"/>
<path class="st0" d="M1732.5,723.4c0.5,0,0.6-3,1.4-4.1c0.7-1,3.2-1.6,3.2-2.3c0-0.6-2.4-0.7-3.2-1.7c-0.7-0.8-1.2-3.7-1.6-3.7
	c-0.5,0-0.8,2.8-1.4,3.8c-0.7,0.9-3.2,1.5-3.2,2s2.5,1.1,3.2,1.9C1731.7,720.4,1731.9,723.4,1732.5,723.4z"/>
<path class="st0" d="M1728.9,1024c0.5,0,0.6-3,1.4-4.1c0.7-1,3.2-1.6,3.2-2.3c0-0.6-2.4-0.7-3.2-1.7c-0.7-0.8-1.2-3.7-1.6-3.7
	c-0.5,0-0.8,2.8-1.4,3.8c-0.7,0.9-3.2,1.5-3.2,2s2.5,1.1,3.2,1.9C1728.1,1021,1728.3,1024,1728.9,1024z"/>
<path class="st0" d="M1815.6,639.5c0.5,0,0.6-3,1.4-4.1c0.7-1,3.2-1.6,3.2-2.3c0-0.6-2.4-0.7-3.2-1.7c-0.7-0.8-1.2-3.7-1.6-3.7
	c-0.5,0-0.8,2.8-1.4,3.8c-0.7,0.9-3.2,1.5-3.2,2s2.5,1.1,3.2,1.9C1814.8,636.5,1815,639.5,1815.6,639.5z"/>
<path class="st0" d="M50.9-4.3c-1.3,0-1.6,7.9-3.6,10.9c-1.8,2.6-8.4,4.4-8.4,6c0,1.5,6.3,1.8,8.5,4.5c1.9,2.2,3.1,9.8,4.4,9.8
	c1.3,0,1.9-7.4,3.8-9.9c1.8-2.5,8.4-4,8.3-5.3c0-1.4-6.6-2.7-8.5-5.1C53.1,3.5,52.4-4.4,50.9-4.3z"/>
<path class="st0" d="M313,50.1c-0.9,0-1.1,5.4-2.5,7.4c-1.2,1.8-5.7,3-5.7,4.1c0,1,4.3,1.2,5.8,3c1.3,1.5,2.1,6.7,3,6.7
	s1.3-5.1,2.6-6.8c1.2-1.7,5.7-2.7,5.7-3.6c0-0.9-4.5-1.9-5.8-3.5C314.4,55.4,314,50.1,313,50.1z"/>
<path class="st0" d="M184.9,58.7c-0.5,0-0.6,3-1.4,4.1c-0.7,1-3.2,1.7-3.2,2.3s2.4,0.7,3.2,1.7c0.7,0.8,1.2,3.7,1.7,3.7
	s0.7-2.8,1.4-3.8c0.7-0.9,3.2-1.5,3.2-2s-2.5-1-3.2-1.9C185.7,61.7,185.5,58.7,184.9,58.7z"/>
<path class="st0" d="M31.8,54.4c-0.5,0-0.6,3-1.4,4.1c-0.7,1-3.2,1.7-3.2,2.3s2.4,0.7,3.2,1.7c0.7,0.8,1.2,3.7,1.7,3.7
	c0.5,0,0.7-2.8,1.4-3.8c0.7-0.9,3.2-1.5,3.2-2s-2.5-1-3.2-1.9C32.6,57.4,32.4,54.4,31.8,54.4z"/>
<path class="st0" d="M415.2,53.6c1.2,0,1.4-6.8,3.2-9.4c1.5-2.2,7.3-3.8,7.3-5.2c0-1.3-5.4-1.6-7.3-3.9c-1.6-1.9-2.6-8.6-3.8-8.6
	c-1.1,0-1.7,6.4-3.3,8.6c-1.6,2.2-7.3,3.4-7.3,4.6c0,1.2,5.7,2.4,7.3,4.5C413.4,46.8,413.9,53.6,415.2,53.6z"/>
<path class="st0" d="M675.7,63.3c0.9,0,1.1-5.4,2.5-7.4c1.2-1.8,5.7-3,5.7-4s-4.3-1.3-5.8-3.1c-1.3-1.5-2.1-6.7-2.9-6.7
	c-0.9,0-1.4,5.1-2.6,6.8c-1.3,1.7-5.7,2.7-5.7,3.6c0,0.9,4.5,1.9,5.7,3.5C674.3,58,674.7,63.3,675.7,63.3z"/>
<path class="st0" d="M467.4,53.6c0.5,0,0.6-3,1.4-4.1c0.7-1,3.2-1.6,3.2-2.3c0-0.6-2.4-0.7-3.2-1.7c-0.7-0.8-1.2-3.7-1.6-3.7
	c-0.5,0-0.8,2.8-1.4,3.8c-0.7,0.9-3.2,1.5-3.2,2s2.5,1.1,3.2,1.9C466.6,50.6,466.9,53.6,467.4,53.6z"/>
<path class="st0" d="M656.2,22.9c0.5,0,0.6-3,1.4-4.1c0.7-1,3.2-1.6,3.2-2.3c0-0.6-2.4-0.7-3.2-1.7c-0.7-0.8-1.2-3.7-1.6-3.7
	c-0.5,0-0.8,2.8-1.4,3.8c-0.7,0.9-3.2,1.5-3.2,2s2.5,1.1,3.2,1.9C655.4,19.9,655.6,22.9,656.2,22.9z"/>
<path class="st0" d="M982.9,76.3c1.2,0,1.4-6.8,3.2-9.4c1.5-2.2,7.3-3.8,7.3-5.2c0-1.3-5.4-1.6-7.3-3.9c-1.6-1.9-2.6-8.6-3.8-8.6
	c-1.1,0-1.7,6.4-3.3,8.6c-1.6,2.2-7.3,3.4-7.3,4.6c0,1.2,5.7,2.4,7.3,4.5C981.1,69.5,981.6,76.3,982.9,76.3z"/>
<path class="st0" d="M1243.4,86c0.9,0,1.1-5.4,2.5-7.4c1.2-1.8,5.7-3,5.7-4s-4.3-1.3-5.8-3.1c-1.3-1.5-2.1-6.7-2.9-6.7
	c-0.9,0-1.4,5.1-2.6,6.8c-1.3,1.7-5.7,2.7-5.7,3.6s4.5,1.9,5.7,3.5C1242,80.6,1242.4,86,1243.4,86z"/>
<path class="st0" d="M1035.2,76.3c0.5,0,0.6-3,1.4-4.1c0.7-1,3.2-1.6,3.2-2.3c0-0.6-2.4-0.7-3.2-1.7c-0.7-0.8-1.2-3.7-1.6-3.7
	c-0.5,0-0.8,2.8-1.4,3.8c-0.7,0.9-3.2,1.5-3.2,2s2.5,1.1,3.2,1.9C1034.4,73.3,1034.6,76.3,1035.2,76.3z"/>
<path class="st0" d="M1223.9,45.6c0.5,0,0.6-3,1.4-4.1c0.7-1,3.2-1.6,3.2-2.3c0-0.6-2.4-0.7-3.2-1.7c-0.7-0.8-1.2-3.7-1.6-3.7
	c-0.5,0-0.8,2.8-1.4,3.8c-0.7,0.9-3.2,1.5-3.2,2s2.5,1.1,3.2,1.9C1223.1,42.6,1223.4,45.6,1223.9,45.6z"/>
<path class="st0" d="M1626.2,78.6c1.2,0,1.4-6.8,3.2-9.4c1.5-2.2,7.3-3.8,7.3-5.2c0-1.3-5.4-1.6-7.3-3.9c-1.6-1.9-2.6-8.6-3.8-8.6
	c-1.1,0-1.7,6.4-3.3,8.6c-1.6,2.2-7.3,3.4-7.3,4.6s5.7,2.4,7.3,4.5C1624.4,71.8,1625,78.6,1626.2,78.6z"/>
<path class="st0" d="M1678.5,78.6c0.5,0,0.6-3,1.4-4.1c0.7-1,3.2-1.6,3.2-2.3c0-0.6-2.4-0.7-3.2-1.7c-0.7-0.8-1.2-3.7-1.6-3.7
	s-0.8,2.8-1.4,3.8c-0.7,0.9-3.2,1.5-3.2,2s2.5,1.1,3.2,1.9C1677.7,75.6,1677.9,78.6,1678.5,78.6z"/>
</svg>
